<?xml version="1.0" encoding="UTF-8"?>
<!DOCTYPE svg PUBLIC "-//W3C//DTD SVG 1.1//EN" "http://www.w3.org/Graphics/SVG/1.1/DTD/svg11.dtd">
<!-- Creator: CorelDRAW 2018 -->
<svg xmlns="http://www.w3.org/2000/svg" xml:space="preserve" width="2480px" height="2480px" version="1.1" shape-rendering="geometricPrecision" text-rendering="geometricPrecision" image-rendering="optimizeQuality" fill-rule="evenodd" clip-rule="evenodd"
viewBox="0 0 2480 2480"
 xmlns:xlink="http://www.w3.org/1999/xlink">
 <g id="Layer_x0020_1">
  <metadata id="CorelCorpID_0Corel-Layer"/>
  <g id="_823717344">
   <path fill="#5ADAFD" d="M2480 1240c0,408.54 -197.59,770.93 -502.38,996.86 -127.59,94.54 -273.96,165.19 -432.48,205.28 -97.63,24.75 -199.82,37.86 -305.14,37.86 -105.32,0 -207.56,-13.11 -305.19,-37.86 -158.52,-40.09 -304.89,-110.74 -432.48,-205.33 -304.79,-225.94 -502.33,-588.32 -502.33,-996.81 0,-684.83 555.17,-1240 1240,-1240 684.83,0 1240,555.17 1240,1240z"/>
   <path fill="#F2F2F2" d="M1978.91 1792.54c-5.82,-39.02 -13.51,-79.21 -23.03,-120.31 -8.4,-36.08 -18.17,-72.88 -29.25,-110.23 -29.15,-98.09 -67.56,-200.02 -114.13,-303.06 -20.39,-45.05 -42.36,-90.3 -65.79,-135.49 -20.65,-39.83 -42.42,-79.72 -65.35,-119.35 -22.87,-39.68 -46.46,-78.45 -70.7,-116.25 -27.38,-42.87 -55.57,-84.47 -84.42,-124.66 -65.9,-91.86 -134.98,-176.13 -205.39,-250.43 -26.77,-28.3 -53.75,-55.12 -80.82,-80.38 -30.82,-28.85 -61.8,-55.62 -92.73,-80.17 -201.89,-160.28 -382.63,-208.42 -509,-135.48 -126.38,72.98 -175.07,253.56 -137.21,508.6 5.77,39.02 13.51,79.21 23.08,120.3 8.3,36.09 18.07,72.89 29.2,110.24 29.15,98.08 67.57,200.07 114.18,303.06 20.35,45.05 42.31,90.24 65.75,135.44 20.65,39.88 42.46,79.71 65.34,119.39 22.88,39.68 46.46,78.45 70.7,116.26 27.43,42.92 55.62,84.52 84.43,124.7 65.89,91.86 134.98,176.08 205.38,250.38 26.78,28.29 53.8,55.17 80.88,80.42 30.82,28.85 61.79,55.57 92.67,80.12 354.53,301.45 769.23,139.01 646.21,-373.1zm-113.68 280.24c-14.73,63.67 -41.8,107.3 -80.52,129.62 -38.67,22.37 -89.99,23.99 -152.49,4.96 -67.72,-20.71 -146.78,-65.95 -228.67,-130.99 -27.53,-21.86 -55.12,-45.65 -82.7,-71.21 -27.03,-25.1 -54.06,-51.93 -80.88,-80.32 -46.06,-48.74 -91.61,-102.09 -136.04,-159.33 -29.66,-38.21 -58.87,-78.14 -87.36,-119.6 -41.35,-60.07 -81.28,-123.34 -119.24,-189.14 -38.01,-65.79 -72.84,-131.99 -104.16,-197.84 -21.67,-45.4 -41.66,-90.64 -59.88,-135.43 -27.38,-67.11 -50.81,-133.27 -70,-197.49 -11.13,-37.46 -20.9,-74.2 -29.05,-110.18 -8.4,-36.65 -15.23,-72.48 -20.4,-107.25 -15.38,-103.4 -15.03,-194.5 0.92,-263.49 14.73,-63.67 41.85,-107.3 80.52,-129.62 20.9,-12.04 45.45,-18.12 73.43,-18.12 23.89,0 50.31,4.41 79.06,13.21 67.72,20.65 146.77,65.95 228.66,130.94 27.53,21.86 55.17,45.65 82.71,71.31 27.07,25.05 54.05,51.88 80.82,80.23 46.11,48.73 91.66,102.08 136.15,159.37 29.66,38.22 58.86,78.15 87.36,119.6 41.3,60.08 81.23,123.34 119.19,189.09 38.01,65.8 72.83,131.99 104.16,197.84 21.66,45.45 41.65,90.7 59.87,135.49 27.38,67.11 50.82,133.21 70,197.44 11.13,37.45 20.9,74.19 29.1,110.18 8.35,36.64 15.19,72.47 20.35,107.24 15.39,103.4 15.04,194.5 -0.91,263.49z"/>
   <path fill="#F2F2F2" d="M2071.58 885.87c-36.69,-14.47 -75.36,-27.89 -115.75,-40.24 -35.43,-10.78 -72.17,-20.75 -110.08,-29.81 -99.51,-23.78 -207,-41.5 -319.52,-52.63 -49.14,-4.91 -99.3,-8.5 -150.11,-10.79 -44.85,-2.07 -90.3,-3.13 -136.1,-3.13 -45.8,0 -91.25,1.06 -136.15,3.13 -50.86,2.28 -101.02,5.93 -150.16,10.79 -112.51,11.13 -219.96,28.85 -319.47,52.63 -37.91,9.06 -74.65,19.04 -110.08,29.81 -40.39,12.3 -79.06,25.77 -115.75,40.24 -239.75,94.64 -371.85,227.15 -371.85,373.06 0,145.91 132.1,278.42 371.85,373.11 36.7,14.48 75.31,27.89 115.7,40.24 35.43,10.78 72.17,20.75 110.08,29.76 99.51,23.84 207.01,41.5 319.57,52.69 49.14,4.86 99.3,8.45 150.17,10.78 44.84,2.07 90.29,3.09 136.09,3.09 45.8,0 91.21,-1.02 136.05,-3.09 50.86,-2.33 100.97,-5.92 150.17,-10.78 112.51,-11.14 220.06,-28.85 319.56,-52.69 37.91,-9.06 74.65,-18.98 110.09,-29.81 40.34,-12.3 79,-25.71 115.69,-40.19 239.8,-94.69 371.85,-227.19 371.85,-373.11 0,-145.91 -132.05,-278.42 -371.85,-373.06zm185.85 507.59c-51.73,48.33 -130.48,94.13 -227.71,132.55 -32.74,12.9 -67.16,24.95 -103.1,35.98 -35.27,10.89 -71.96,20.86 -109.93,29.87 -65.24,15.54 -134.22,28.29 -206.04,38.16 -47.88,6.63 -97.02,11.94 -147.18,15.84 -72.73,5.83 -147.48,8.76 -223.45,8.76 -75.97,0 -150.72,-2.93 -223.45,-8.7 -50.16,-3.95 -99.35,-9.26 -147.23,-15.9 -71.82,-9.87 -140.81,-22.62 -206.05,-38.16 -37.96,-9.01 -74.65,-18.98 -109.93,-29.86 -35.93,-11.03 -70.35,-23.08 -103.1,-35.99 -97.22,-38.41 -175.97,-84.21 -227.7,-132.55 -47.78,-44.59 -72.02,-89.84 -72.02,-134.52 0,-44.69 24.24,-89.94 72.02,-134.53 51.73,-48.34 130.48,-94.14 227.7,-132.55 32.75,-12.91 67.17,-24.95 103.1,-35.99 35.28,-10.88 71.97,-20.85 109.93,-29.86 65.24,-15.54 134.23,-28.29 206.05,-38.16 47.88,-6.64 97.07,-11.95 147.23,-15.9 72.73,-5.77 147.48,-8.7 223.45,-8.7 75.97,0 150.72,2.93 223.45,8.76 50.16,3.9 99.3,9.21 147.18,15.84 71.82,9.87 140.8,22.63 206.04,38.16 37.97,9.01 74.66,18.98 109.93,29.87 35.94,11.03 70.35,23.08 103.1,35.98 97.23,38.42 175.98,84.22 227.71,132.55 47.78,44.6 72.02,89.84 72.02,134.53 0,44.68 -24.24,89.93 -72.02,134.52z"/>
   <path fill="#F2F2F2" d="M1841.7 216.73c-126.38,-72.94 -307.11,-24.8 -509.01,135.48 -30.87,24.55 -61.85,51.32 -92.67,80.17 -27.08,25.26 -54.1,52.13 -80.88,80.42 -70.4,74.3 -139.48,158.52 -205.43,250.38 -28.79,40.19 -56.99,81.79 -84.37,124.66 -24.24,37.81 -47.82,76.58 -70.7,116.26 -22.88,39.68 -44.69,79.51 -65.34,119.39 -23.44,45.2 -45.4,90.44 -65.75,135.44 -46.61,103.04 -85.03,204.97 -114.18,303.06 -11.13,37.4 -20.9,74.2 -29.26,110.28 -9.51,41.1 -17.25,81.24 -23.02,120.26 -120.34,515.4 294.57,678.16 646.22,373.11 30.92,-24.55 61.9,-51.32 92.72,-80.12 27.08,-25.26 54.06,-52.08 80.83,-80.37 70.35,-74.3 139.48,-158.57 205.38,-250.43 28.8,-40.19 56.99,-81.79 84.42,-124.71 24.25,-37.81 47.83,-76.58 70.71,-116.26 22.92,-39.63 44.69,-79.46 65.34,-119.34 23.43,-45.2 45.4,-90.44 65.8,-135.49 46.56,-103 84.98,-204.98 114.13,-303.06 11.08,-37.35 20.85,-74.15 29.2,-110.24 9.57,-41.1 17.26,-81.28 23.08,-120.3 37.85,-255.03 -10.84,-435.61 -137.22,-508.59zm-25 709.27c-19.18,64.23 -42.62,130.33 -70,197.44 -18.22,44.79 -38.21,90.04 -59.87,135.49 -31.33,65.85 -66.15,132.05 -104.16,197.84 -37.96,65.75 -77.89,129.01 -119.19,189.09 -28.55,41.5 -57.75,81.43 -87.41,119.64 -44.43,57.25 -89.98,110.59 -136.09,159.33 -26.77,28.34 -53.75,55.17 -80.83,80.27 -27.53,25.61 -55.17,49.4 -82.7,71.26 -81.89,65.04 -160.95,110.28 -228.67,130.99 -62.5,19.03 -113.83,17.4 -152.49,-4.96 -38.67,-22.32 -65.8,-65.95 -80.52,-129.62 -15.94,-68.99 -16.3,-160.09 -0.91,-263.49 5.16,-34.77 11.99,-70.6 20.34,-107.24 8.2,-35.99 17.97,-72.73 29.1,-110.18 19.18,-64.23 42.62,-130.38 70,-197.49 18.22,-44.79 38.21,-90.04 59.87,-135.44 31.33,-65.85 66.15,-132.05 104.16,-197.84 37.96,-65.8 77.89,-129.06 119.24,-189.14 28.5,-41.45 57.65,-81.39 87.31,-119.55 44.49,-57.29 90.04,-110.63 136.09,-159.38 26.83,-28.39 53.86,-55.21 80.88,-80.27 27.59,-25.6 55.17,-49.39 82.7,-71.26 81.89,-64.98 160.95,-110.28 228.67,-130.93 28.74,-8.81 55.16,-13.21 79.05,-13.21 27.99,0 52.59,6.07 73.44,18.12 38.71,22.32 65.8,65.95 80.52,129.62 15.94,68.98 16.3,160.08 0.91,263.48 -5.16,34.77 -11.99,70.61 -20.4,107.25 -8.14,35.98 -17.91,72.73 -29.04,110.18z"/>
   <circle fill="#F2F2F2" cx="1240.02" cy="1258.93" r="226.18"/>
  </g>
 </g>
</svg>
